<svg width="1280" height="720" viewBox="0 0 1280 720" fill="none" xmlns="http://www.w3.org/2000/svg">
<rect width="1280" height="720" fill="black"/>
<path d="M1044.63 41H1043.19V31.4688L1040.21 32.6016V31.2812L1044.52 29.625H1044.63V41ZM1051.24 34.6172H1052.27C1052.64 34.6172 1052.96 34.5677 1053.23 34.4688C1053.52 34.3698 1053.75 34.2344 1053.94 34.0625C1054.13 33.8906 1054.28 33.6849 1054.38 33.4453C1054.47 33.2057 1054.52 32.9427 1054.52 32.6562C1054.52 31.9948 1054.35 31.4974 1054.02 31.1641C1053.68 30.8255 1053.18 30.6562 1052.53 30.6562C1052.22 30.6562 1051.94 30.7031 1051.69 30.7969C1051.44 30.8854 1051.22 31.0156 1051.04 31.1875C1050.86 31.3594 1050.72 31.5651 1050.62 31.8047C1050.53 32.0443 1050.48 32.3125 1050.48 32.6094H1049.02C1049.02 32.1771 1049.11 31.7708 1049.27 31.3906C1049.45 31.0052 1049.68 30.6719 1049.99 30.3906C1050.3 30.1042 1050.67 29.8802 1051.09 29.7188C1051.53 29.5521 1052.01 29.4688 1052.53 29.4688C1053.04 29.4688 1053.51 29.5391 1053.93 29.6797C1054.35 29.8151 1054.71 30.0182 1055.02 30.2891C1055.32 30.5599 1055.55 30.8958 1055.72 31.2969C1055.89 31.6979 1055.97 32.1615 1055.97 32.6875C1055.97 32.9062 1055.93 33.1328 1055.87 33.3672C1055.8 33.6016 1055.7 33.8307 1055.55 34.0547C1055.41 34.2734 1055.23 34.4818 1055.01 34.6797C1054.79 34.8724 1054.53 35.0339 1054.22 35.1641C1054.59 35.2839 1054.9 35.4401 1055.14 35.6328C1055.39 35.8255 1055.59 36.0417 1055.73 36.2812C1055.89 36.5208 1055.99 36.7734 1056.05 37.0391C1056.11 37.3047 1056.14 37.5677 1056.14 37.8281C1056.14 38.3594 1056.05 38.8307 1055.87 39.2422C1055.68 39.6536 1055.43 40.0026 1055.11 40.2891C1054.79 40.5703 1054.4 40.7865 1053.96 40.9375C1053.52 41.0833 1053.05 41.1562 1052.54 41.1562C1052.04 41.1562 1051.57 41.0859 1051.12 40.9453C1050.69 40.8047 1050.31 40.599 1049.98 40.3281C1049.66 40.0573 1049.4 39.7266 1049.21 39.3359C1049.02 38.9453 1048.93 38.5 1048.93 38H1050.38C1050.38 38.2969 1050.42 38.5677 1050.52 38.8125C1050.63 39.0573 1050.77 39.2656 1050.96 39.4375C1051.15 39.6094 1051.38 39.7422 1051.64 39.8359C1051.91 39.9297 1052.21 39.9766 1052.54 39.9766C1052.87 39.9766 1053.16 39.9349 1053.43 39.8516C1053.7 39.763 1053.92 39.6302 1054.11 39.4531C1054.3 39.276 1054.44 39.0573 1054.54 38.7969C1054.64 38.5312 1054.7 38.2188 1054.7 37.8594C1054.7 37.5052 1054.64 37.2005 1054.52 36.9453C1054.4 36.6849 1054.24 36.4688 1054.02 36.2969C1053.82 36.125 1053.56 35.9974 1053.26 35.9141C1052.96 35.8307 1052.63 35.7891 1052.27 35.7891H1051.24V34.6172ZM1059.68 35.2969L1060.25 29.625H1066.09V31.0312H1061.47L1061.15 34.0625C1061.37 33.9323 1061.64 33.8177 1061.95 33.7188C1062.27 33.6198 1062.63 33.5703 1063.04 33.5703C1063.57 33.5703 1064.04 33.6615 1064.45 33.8438C1064.87 34.026 1065.22 34.2839 1065.52 34.6172C1065.81 34.9453 1066.03 35.3438 1066.19 35.8125C1066.34 36.2812 1066.42 36.8021 1066.42 37.375C1066.42 37.9167 1066.35 38.4193 1066.2 38.8828C1066.06 39.3464 1065.84 39.7474 1065.54 40.0859C1065.25 40.4193 1064.88 40.6823 1064.43 40.875C1063.98 41.0625 1063.46 41.1562 1062.85 41.1562C1062.39 41.1562 1061.95 41.0911 1061.54 40.9609C1061.13 40.8307 1060.76 40.6354 1060.44 40.375C1060.12 40.1146 1059.86 39.7865 1059.65 39.3906C1059.45 38.9948 1059.32 38.5339 1059.27 38.0078H1060.64C1060.73 38.6536 1060.97 39.1432 1061.35 39.4766C1061.74 39.8099 1062.24 39.9766 1062.85 39.9766C1063.2 39.9766 1063.5 39.9167 1063.77 39.7969C1064.03 39.6719 1064.25 39.4974 1064.43 39.2734C1064.61 39.0443 1064.75 38.7708 1064.84 38.4531C1064.93 38.1354 1064.98 37.7812 1064.98 37.3906C1064.98 37.0365 1064.92 36.7057 1064.82 36.3984C1064.72 36.0911 1064.58 35.8255 1064.38 35.6016C1064.19 35.3724 1063.95 35.1927 1063.67 35.0625C1063.39 34.9323 1063.07 34.8672 1062.7 34.8672C1062.46 34.8672 1062.26 34.8854 1062.08 34.9219C1061.91 34.9531 1061.75 35 1061.61 35.0625C1061.47 35.125 1061.34 35.2005 1061.21 35.2891C1061.09 35.3776 1060.97 35.4792 1060.84 35.5938L1059.68 35.2969Z" fill="white"/>
<path d="M558.039 41H556.594V30.8125H552.422V41H550.977V29.625H558.039V41ZM567.812 36.8672C567.812 37.4714 567.74 38.0365 567.594 38.5625C567.448 39.0833 567.234 39.5365 566.953 39.9219C566.672 40.3073 566.323 40.6094 565.906 40.8281C565.495 41.0469 565.023 41.1562 564.492 41.1562C563.977 41.1562 563.521 41.0729 563.125 40.9062C562.734 40.7396 562.398 40.5 562.117 40.1875V44.25H560.672V32.5469H561.992L562.062 33.4688C562.344 33.1198 562.682 32.8542 563.078 32.6719C563.479 32.4844 563.943 32.3906 564.469 32.3906C565.01 32.3906 565.49 32.4974 565.906 32.7109C566.323 32.9245 566.672 33.2214 566.953 33.6016C567.234 33.9818 567.448 34.4375 567.594 34.9688C567.74 35.4948 567.812 36.0729 567.812 36.7031V36.8672ZM566.367 36.7031C566.367 36.2917 566.32 35.901 566.227 35.5312C566.138 35.1562 565.997 34.8281 565.805 34.5469C565.617 34.2604 565.378 34.0339 565.086 33.8672C564.794 33.7005 564.445 33.6172 564.039 33.6172C563.576 33.6172 563.185 33.7266 562.867 33.9453C562.555 34.1589 562.305 34.4349 562.117 34.7734V38.8438C562.305 39.1771 562.555 39.4505 562.867 39.6641C563.18 39.8724 563.576 39.9766 564.055 39.9766C564.456 39.9766 564.802 39.8932 565.094 39.7266C565.385 39.5547 565.625 39.3255 565.812 39.0391C566 38.7526 566.138 38.4219 566.227 38.0469C566.32 37.6719 566.367 37.2786 566.367 36.8672V36.7031ZM569.883 36.6953C569.883 36.0859 569.971 35.5208 570.148 35C570.326 34.474 570.578 34.0182 570.906 33.6328C571.24 33.2474 571.643 32.9453 572.117 32.7266C572.591 32.5026 573.125 32.3906 573.719 32.3906C574.318 32.3906 574.854 32.5026 575.328 32.7266C575.807 32.9453 576.211 33.2474 576.539 33.6328C576.872 34.0182 577.128 34.474 577.305 35C577.482 35.5208 577.57 36.0859 577.57 36.6953V36.8672C577.57 37.4766 577.482 38.0417 577.305 38.5625C577.128 39.0833 576.872 39.5365 576.539 39.9219C576.211 40.3073 575.81 40.6094 575.336 40.8281C574.862 41.0469 574.328 41.1562 573.734 41.1562C573.135 41.1562 572.596 41.0469 572.117 40.8281C571.643 40.6094 571.24 40.3073 570.906 39.9219C570.578 39.5365 570.326 39.0833 570.148 38.5625C569.971 38.0417 569.883 37.4766 569.883 36.8672V36.6953ZM571.328 36.8672C571.328 37.2839 571.378 37.6823 571.477 38.0625C571.576 38.4375 571.724 38.7682 571.922 39.0547C572.125 39.3411 572.378 39.5677 572.68 39.7344C572.982 39.901 573.333 39.9844 573.734 39.9844C574.13 39.9844 574.477 39.901 574.773 39.7344C575.076 39.5677 575.326 39.3411 575.523 39.0547C575.727 38.7682 575.878 38.4375 575.977 38.0625C576.076 37.6823 576.125 37.2839 576.125 36.8672V36.6953C576.125 36.2839 576.073 35.8906 575.969 35.5156C575.87 35.1354 575.719 34.8021 575.516 34.5156C575.318 34.2292 575.068 34.0026 574.766 33.8359C574.469 33.6641 574.12 33.5781 573.719 33.5781C573.318 33.5781 572.969 33.6641 572.672 33.8359C572.375 34.0026 572.125 34.2292 571.922 34.5156C571.724 34.8021 571.576 35.1354 571.477 35.5156C571.378 35.8906 571.328 36.2839 571.328 36.6953V36.8672ZM583.5 39.9844C583.76 39.9844 584.013 39.9427 584.258 39.8594C584.508 39.776 584.729 39.6615 584.922 39.5156C585.115 39.3646 585.268 39.1901 585.383 38.9922C585.503 38.7891 585.565 38.5703 585.57 38.3359H586.938C586.932 38.7109 586.833 39.0703 586.641 39.4141C586.453 39.7526 586.201 40.0521 585.883 40.3125C585.565 40.5677 585.201 40.7734 584.789 40.9297C584.378 41.0807 583.948 41.1562 583.5 41.1562C582.859 41.1562 582.299 41.0417 581.82 40.8125C581.341 40.5833 580.94 40.276 580.617 39.8906C580.299 39.5 580.06 39.0521 579.898 38.5469C579.737 38.0365 579.656 37.5 579.656 36.9375V36.6094C579.656 36.0521 579.737 35.5182 579.898 35.0078C580.06 34.4974 580.299 34.0495 580.617 33.6641C580.94 33.2734 581.341 32.9635 581.82 32.7344C582.299 32.5052 582.859 32.3906 583.5 32.3906C584 32.3906 584.458 32.4714 584.875 32.6328C585.297 32.7891 585.659 33.0052 585.961 33.2812C586.268 33.5521 586.508 33.875 586.68 34.25C586.852 34.625 586.938 35.026 586.938 35.4531H585.57C585.565 35.1979 585.508 34.9583 585.398 34.7344C585.294 34.5052 585.151 34.3047 584.969 34.1328C584.786 33.9609 584.568 33.8255 584.312 33.7266C584.062 33.6276 583.792 33.5781 583.5 33.5781C583.052 33.5781 582.674 33.6693 582.367 33.8516C582.065 34.0286 581.82 34.263 581.633 34.5547C581.445 34.8411 581.31 35.1641 581.227 35.5234C581.148 35.8828 581.109 36.2448 581.109 36.6094V36.9375C581.109 37.3073 581.148 37.6745 581.227 38.0391C581.31 38.3984 581.443 38.724 581.625 39.0156C581.812 39.3021 582.057 39.5365 582.359 39.7188C582.667 39.8958 583.047 39.9844 583.5 39.9844ZM596.641 36.8672C596.641 37.4714 596.568 38.0365 596.422 38.5625C596.276 39.0833 596.062 39.5365 595.781 39.9219C595.5 40.3073 595.151 40.6094 594.734 40.8281C594.323 41.0469 593.852 41.1562 593.32 41.1562C592.805 41.1562 592.349 41.0729 591.953 40.9062C591.562 40.7396 591.227 40.5 590.945 40.1875V44.25H589.5V32.5469H590.82L590.891 33.4688C591.172 33.1198 591.51 32.8542 591.906 32.6719C592.307 32.4844 592.771 32.3906 593.297 32.3906C593.839 32.3906 594.318 32.4974 594.734 32.7109C595.151 32.9245 595.5 33.2214 595.781 33.6016C596.062 33.9818 596.276 34.4375 596.422 34.9688C596.568 35.4948 596.641 36.0729 596.641 36.7031V36.8672ZM595.195 36.7031C595.195 36.2917 595.148 35.901 595.055 35.5312C594.966 35.1562 594.826 34.8281 594.633 34.5469C594.445 34.2604 594.206 34.0339 593.914 33.8672C593.622 33.7005 593.273 33.6172 592.867 33.6172C592.404 33.6172 592.013 33.7266 591.695 33.9453C591.383 34.1589 591.133 34.4349 590.945 34.7734V38.8438C591.133 39.1771 591.383 39.4505 591.695 39.6641C592.008 39.8724 592.404 39.9766 592.883 39.9766C593.284 39.9766 593.63 39.8932 593.922 39.7266C594.214 39.5547 594.453 39.3255 594.641 39.0391C594.828 38.7526 594.966 38.4219 595.055 38.0469C595.148 37.6719 595.195 37.2786 595.195 36.8672V36.7031ZM598.711 36.6953C598.711 36.0859 598.799 35.5208 598.977 35C599.154 34.474 599.406 34.0182 599.734 33.6328C600.068 33.2474 600.471 32.9453 600.945 32.7266C601.419 32.5026 601.953 32.3906 602.547 32.3906C603.146 32.3906 603.682 32.5026 604.156 32.7266C604.635 32.9453 605.039 33.2474 605.367 33.6328C605.701 34.0182 605.956 34.474 606.133 35C606.31 35.5208 606.398 36.0859 606.398 36.6953V36.8672C606.398 37.4766 606.31 38.0417 606.133 38.5625C605.956 39.0833 605.701 39.5365 605.367 39.9219C605.039 40.3073 604.638 40.6094 604.164 40.8281C603.69 41.0469 603.156 41.1562 602.562 41.1562C601.964 41.1562 601.424 41.0469 600.945 40.8281C600.471 40.6094 600.068 40.3073 599.734 39.9219C599.406 39.5365 599.154 39.0833 598.977 38.5625C598.799 38.0417 598.711 37.4766 598.711 36.8672V36.6953ZM600.156 36.8672C600.156 37.2839 600.206 37.6823 600.305 38.0625C600.404 38.4375 600.552 38.7682 600.75 39.0547C600.953 39.3411 601.206 39.5677 601.508 39.7344C601.81 39.901 602.161 39.9844 602.562 39.9844C602.958 39.9844 603.305 39.901 603.602 39.7344C603.904 39.5677 604.154 39.3411 604.352 39.0547C604.555 38.7682 604.706 38.4375 604.805 38.0625C604.904 37.6823 604.953 37.2839 604.953 36.8672V36.6953C604.953 36.2839 604.901 35.8906 604.797 35.5156C604.698 35.1354 604.547 34.8021 604.344 34.5156C604.146 34.2292 603.896 34.0026 603.594 33.8359C603.297 33.6641 602.948 33.5781 602.547 33.5781C602.146 33.5781 601.797 33.6641 601.5 33.8359C601.203 34.0026 600.953 34.2292 600.75 34.5156C600.552 34.8021 600.404 35.1354 600.305 35.5156C600.206 35.8906 600.156 36.2839 600.156 36.6953V36.8672ZM615.672 41H614.227V37.9141C613.872 38.0026 613.505 38.0703 613.125 38.1172C612.75 38.1641 612.341 38.1875 611.898 38.1875C611.378 38.1875 610.906 38.1224 610.484 37.9922C610.062 37.862 609.701 37.6667 609.398 37.4062C609.102 37.1406 608.872 36.8099 608.711 36.4141C608.549 36.013 608.469 35.5443 608.469 35.0078V32.5469H609.914V35.0078C609.919 35.7005 610.091 36.2057 610.43 36.5234C610.773 36.8411 611.263 37 611.898 37C612.32 37 612.724 36.9766 613.109 36.9297C613.495 36.8828 613.867 36.8151 614.227 36.7266V32.5469H615.672V41ZM622.07 41.1562C621.477 41.1562 620.93 41.0547 620.43 40.8516C619.935 40.6484 619.51 40.3646 619.156 40C618.802 39.6354 618.526 39.2031 618.328 38.7031C618.13 38.2031 618.031 37.6589 618.031 37.0703V36.7422C618.031 36.0599 618.141 35.4505 618.359 34.9141C618.578 34.3724 618.867 33.9167 619.227 33.5469C619.591 33.1719 620.003 32.8854 620.461 32.6875C620.924 32.4896 621.398 32.3906 621.883 32.3906C622.492 32.3906 623.023 32.4974 623.477 32.7109C623.935 32.9193 624.315 33.2109 624.617 33.5859C624.919 33.9557 625.143 34.3932 625.289 34.8984C625.44 35.4036 625.516 35.9505 625.516 36.5391V37.1875H619.477C619.492 37.5729 619.565 37.9349 619.695 38.2734C619.831 38.612 620.013 38.9089 620.242 39.1641C620.477 39.4141 620.755 39.612 621.078 39.7578C621.401 39.9036 621.758 39.9766 622.148 39.9766C622.664 39.9766 623.122 39.8724 623.523 39.6641C623.924 39.4557 624.258 39.1797 624.523 38.8359L625.406 39.5234C625.266 39.737 625.089 39.9427 624.875 40.1406C624.667 40.3333 624.424 40.5052 624.148 40.6562C623.872 40.8073 623.56 40.9271 623.211 41.0156C622.862 41.1094 622.482 41.1562 622.07 41.1562ZM621.883 33.5781C621.591 33.5781 621.315 33.6328 621.055 33.7422C620.794 33.8464 620.56 34.0026 620.352 34.2109C620.143 34.4141 619.966 34.6667 619.82 34.9688C619.68 35.2656 619.581 35.6094 619.523 36H624.07V35.8906C624.055 35.6094 624 35.3307 623.906 35.0547C623.818 34.7786 623.685 34.5312 623.508 34.3125C623.331 34.0938 623.107 33.9167 622.836 33.7812C622.57 33.6458 622.253 33.5781 621.883 33.5781ZM634.891 41H633.445V37.3906H629.32V41H627.875V32.5469H629.32V36.2109H633.445V32.5469H634.891V41ZM644.5 41H643.055V37.3906H638.93V41H637.484V32.5469H638.93V36.2109H643.055V32.5469H644.5V41ZM646.758 36.6953C646.758 36.0859 646.846 35.5208 647.023 35C647.201 34.474 647.453 34.0182 647.781 33.6328C648.115 33.2474 648.518 32.9453 648.992 32.7266C649.466 32.5026 650 32.3906 650.594 32.3906C651.193 32.3906 651.729 32.5026 652.203 32.7266C652.682 32.9453 653.086 33.2474 653.414 33.6328C653.747 34.0182 654.003 34.474 654.18 35C654.357 35.5208 654.445 36.0859 654.445 36.6953V36.8672C654.445 37.4766 654.357 38.0417 654.18 38.5625C654.003 39.0833 653.747 39.5365 653.414 39.9219C653.086 40.3073 652.685 40.6094 652.211 40.8281C651.737 41.0469 651.203 41.1562 650.609 41.1562C650.01 41.1562 649.471 41.0469 648.992 40.8281C648.518 40.6094 648.115 40.3073 647.781 39.9219C647.453 39.5365 647.201 39.0833 647.023 38.5625C646.846 38.0417 646.758 37.4766 646.758 36.8672V36.6953ZM648.203 36.8672C648.203 37.2839 648.253 37.6823 648.352 38.0625C648.451 38.4375 648.599 38.7682 648.797 39.0547C649 39.3411 649.253 39.5677 649.555 39.7344C649.857 39.901 650.208 39.9844 650.609 39.9844C651.005 39.9844 651.352 39.901 651.648 39.7344C651.951 39.5677 652.201 39.3411 652.398 39.0547C652.602 38.7682 652.753 38.4375 652.852 38.0625C652.951 37.6823 653 37.2839 653 36.8672V36.6953C653 36.2839 652.948 35.8906 652.844 35.5156C652.745 35.1354 652.594 34.8021 652.391 34.5156C652.193 34.2292 651.943 34.0026 651.641 33.8359C651.344 33.6641 650.995 33.5781 650.594 33.5781C650.193 33.5781 649.844 33.6641 649.547 33.8359C649.25 34.0026 649 34.2292 648.797 34.5156C648.599 34.8021 648.451 35.1354 648.352 35.5156C648.253 35.8906 648.203 36.2839 648.203 36.6953V36.8672ZM660.508 41.1562C659.914 41.1562 659.367 41.0547 658.867 40.8516C658.372 40.6484 657.948 40.3646 657.594 40C657.24 39.6354 656.964 39.2031 656.766 38.7031C656.568 38.2031 656.469 37.6589 656.469 37.0703V36.7422C656.469 36.0599 656.578 35.4505 656.797 34.9141C657.016 34.3724 657.305 33.9167 657.664 33.5469C658.029 33.1719 658.44 32.8854 658.898 32.6875C659.362 32.4896 659.836 32.3906 660.32 32.3906C660.93 32.3906 661.461 32.4974 661.914 32.7109C662.372 32.9193 662.753 33.2109 663.055 33.5859C663.357 33.9557 663.581 34.3932 663.727 34.8984C663.878 35.4036 663.953 35.9505 663.953 36.5391V37.1875H657.914C657.93 37.5729 658.003 37.9349 658.133 38.2734C658.268 38.612 658.451 38.9089 658.68 39.1641C658.914 39.4141 659.193 39.612 659.516 39.7578C659.839 39.9036 660.195 39.9766 660.586 39.9766C661.102 39.9766 661.56 39.8724 661.961 39.6641C662.362 39.4557 662.695 39.1797 662.961 38.8359L663.844 39.5234C663.703 39.737 663.526 39.9427 663.312 40.1406C663.104 40.3333 662.862 40.5052 662.586 40.6562C662.31 40.8073 661.997 40.9271 661.648 41.0156C661.299 41.1094 660.919 41.1562 660.508 41.1562ZM660.32 33.5781C660.029 33.5781 659.753 33.6328 659.492 33.7422C659.232 33.8464 658.997 34.0026 658.789 34.2109C658.581 34.4141 658.404 34.6667 658.258 34.9688C658.117 35.2656 658.018 35.6094 657.961 36H662.508V35.8906C662.492 35.6094 662.438 35.3307 662.344 35.0547C662.255 34.7786 662.122 34.5312 661.945 34.3125C661.768 34.0938 661.544 33.9167 661.273 33.7812C661.008 33.6458 660.69 33.5781 660.32 33.5781ZM679.352 39.0859L681.148 32.5469H682.953V41H681.508V35.7891L679.852 41H678.852L677.148 35.6016V41H675.703V32.5469H677.57L679.352 39.0859ZM685.195 36.6953C685.195 36.0859 685.284 35.5208 685.461 35C685.638 34.474 685.891 34.0182 686.219 33.6328C686.552 33.2474 686.956 32.9453 687.43 32.7266C687.904 32.5026 688.438 32.3906 689.031 32.3906C689.63 32.3906 690.167 32.5026 690.641 32.7266C691.12 32.9453 691.523 33.2474 691.852 33.6328C692.185 34.0182 692.44 34.474 692.617 35C692.794 35.5208 692.883 36.0859 692.883 36.6953V36.8672C692.883 37.4766 692.794 38.0417 692.617 38.5625C692.44 39.0833 692.185 39.5365 691.852 39.9219C691.523 40.3073 691.122 40.6094 690.648 40.8281C690.174 41.0469 689.641 41.1562 689.047 41.1562C688.448 41.1562 687.909 41.0469 687.43 40.8281C686.956 40.6094 686.552 40.3073 686.219 39.9219C685.891 39.5365 685.638 39.0833 685.461 38.5625C685.284 38.0417 685.195 37.4766 685.195 36.8672V36.6953ZM686.641 36.8672C686.641 37.2839 686.69 37.6823 686.789 38.0625C686.888 38.4375 687.036 38.7682 687.234 39.0547C687.438 39.3411 687.69 39.5677 687.992 39.7344C688.294 39.901 688.646 39.9844 689.047 39.9844C689.443 39.9844 689.789 39.901 690.086 39.7344C690.388 39.5677 690.638 39.3411 690.836 39.0547C691.039 38.7682 691.19 38.4375 691.289 38.0625C691.388 37.6823 691.438 37.2839 691.438 36.8672V36.6953C691.438 36.2839 691.385 35.8906 691.281 35.5156C691.182 35.1354 691.031 34.8021 690.828 34.5156C690.63 34.2292 690.38 34.0026 690.078 33.8359C689.781 33.6641 689.432 33.5781 689.031 33.5781C688.63 33.5781 688.281 33.6641 687.984 33.8359C687.688 34.0026 687.438 34.2292 687.234 34.5156C687.036 34.8021 686.888 35.1354 686.789 35.5156C686.69 35.8906 686.641 36.2839 686.641 36.6953V36.8672ZM702.148 32.5469V41H700.695V33.7422H697.586L697.578 36.1641C697.578 36.9349 697.531 37.6198 697.438 38.2188C697.344 38.8177 697.188 39.3229 696.969 39.7344C696.75 40.1458 696.456 40.4609 696.086 40.6797C695.716 40.8932 695.255 41 694.703 41H694.281L694.305 39.7109L694.625 39.7031C694.922 39.7031 695.167 39.6302 695.359 39.4844C695.557 39.3333 695.711 39.112 695.82 38.8203C695.935 38.5234 696.013 38.1536 696.055 37.7109C696.102 37.2682 696.125 36.7526 696.125 36.1641L696.141 32.5469H702.148ZM704.414 36.6953C704.414 36.0859 704.503 35.5208 704.68 35C704.857 34.474 705.109 34.0182 705.438 33.6328C705.771 33.2474 706.174 32.9453 706.648 32.7266C707.122 32.5026 707.656 32.3906 708.25 32.3906C708.849 32.3906 709.385 32.5026 709.859 32.7266C710.339 32.9453 710.742 33.2474 711.07 33.6328C711.404 34.0182 711.659 34.474 711.836 35C712.013 35.5208 712.102 36.0859 712.102 36.6953V36.8672C712.102 37.4766 712.013 38.0417 711.836 38.5625C711.659 39.0833 711.404 39.5365 711.07 39.9219C710.742 40.3073 710.341 40.6094 709.867 40.8281C709.393 41.0469 708.859 41.1562 708.266 41.1562C707.667 41.1562 707.128 41.0469 706.648 40.8281C706.174 40.6094 705.771 40.3073 705.438 39.9219C705.109 39.5365 704.857 39.0833 704.68 38.5625C704.503 38.0417 704.414 37.4766 704.414 36.8672V36.6953ZM705.859 36.8672C705.859 37.2839 705.909 37.6823 706.008 38.0625C706.107 38.4375 706.255 38.7682 706.453 39.0547C706.656 39.3411 706.909 39.5677 707.211 39.7344C707.513 39.901 707.865 39.9844 708.266 39.9844C708.661 39.9844 709.008 39.901 709.305 39.7344C709.607 39.5677 709.857 39.3411 710.055 39.0547C710.258 38.7682 710.409 38.4375 710.508 38.0625C710.607 37.6823 710.656 37.2839 710.656 36.8672V36.6953C710.656 36.2839 710.604 35.8906 710.5 35.5156C710.401 35.1354 710.25 34.8021 710.047 34.5156C709.849 34.2292 709.599 34.0026 709.297 33.8359C709 33.6641 708.651 33.5781 708.25 33.5781C707.849 33.5781 707.5 33.6641 707.203 33.8359C706.906 34.0026 706.656 34.2292 706.453 34.5156C706.255 34.8021 706.107 35.1354 706.008 35.5156C705.909 35.8906 705.859 36.2839 705.859 36.6953V36.8672ZM717.172 37.3984H715.797V41H714.352V32.5469H715.797V36.125H717.047L720.195 32.5469H721.953L718.328 36.6172L722.234 41H720.398L717.172 37.3984ZM723.633 36.6953C723.633 36.0859 723.721 35.5208 723.898 35C724.076 34.474 724.328 34.0182 724.656 33.6328C724.99 33.2474 725.393 32.9453 725.867 32.7266C726.341 32.5026 726.875 32.3906 727.469 32.3906C728.068 32.3906 728.604 32.5026 729.078 32.7266C729.557 32.9453 729.961 33.2474 730.289 33.6328C730.622 34.0182 730.878 34.474 731.055 35C731.232 35.5208 731.32 36.0859 731.32 36.6953V36.8672C731.32 37.4766 731.232 38.0417 731.055 38.5625C730.878 39.0833 730.622 39.5365 730.289 39.9219C729.961 40.3073 729.56 40.6094 729.086 40.8281C728.612 41.0469 728.078 41.1562 727.484 41.1562C726.885 41.1562 726.346 41.0469 725.867 40.8281C725.393 40.6094 724.99 40.3073 724.656 39.9219C724.328 39.5365 724.076 39.0833 723.898 38.5625C723.721 38.0417 723.633 37.4766 723.633 36.8672V36.6953ZM725.078 36.8672C725.078 37.2839 725.128 37.6823 725.227 38.0625C725.326 38.4375 725.474 38.7682 725.672 39.0547C725.875 39.3411 726.128 39.5677 726.43 39.7344C726.732 39.901 727.083 39.9844 727.484 39.9844C727.88 39.9844 728.227 39.901 728.523 39.7344C728.826 39.5677 729.076 39.3411 729.273 39.0547C729.477 38.7682 729.628 38.4375 729.727 38.0625C729.826 37.6823 729.875 37.2839 729.875 36.8672V36.6953C729.875 36.2839 729.823 35.8906 729.719 35.5156C729.62 35.1354 729.469 34.8021 729.266 34.5156C729.068 34.2292 728.818 34.0026 728.516 33.8359C728.219 33.6641 727.87 33.5781 727.469 33.5781C727.068 33.5781 726.719 33.6641 726.422 33.8359C726.125 34.0026 725.875 34.2292 725.672 34.5156C725.474 34.8021 725.326 35.1354 725.227 35.5156C725.128 35.8906 725.078 36.2839 725.078 36.6953V36.8672Z" fill="white"/>
<path d="M228.242 41H226.797V31.4688L223.82 32.6016V31.2812L228.125 29.625H228.242V41Z" fill="white"/>
<path d="M0 0H1280V35H0V0Z" fill="black"/>
<path d="M209.896 16.951C210.44 16.951 210.888 16.7527 211.239 16.356C211.59 15.9593 211.766 15.3133 211.766 14.418C211.766 13.534 211.573 12.837 211.188 12.327C210.814 11.8057 210.236 11.545 209.454 11.545C209.227 11.545 208.972 11.5847 208.689 11.664V19.025C208.689 19.5237 208.74 19.909 208.842 20.181C208.955 20.453 209.131 20.6513 209.369 20.776C209.618 20.8893 209.964 20.963 210.406 20.997C210.485 21.2237 210.525 21.575 210.525 22.051C209.936 22.017 209.012 22 207.754 22C206.439 22 205.47 22.017 204.847 22.051C204.847 21.5523 204.881 21.201 204.949 20.997C205.266 20.9743 205.504 20.9177 205.663 20.827C205.822 20.725 205.935 20.5607 206.003 20.334C206.071 20.096 206.105 19.7447 206.105 19.28V13.211C206.105 12.7463 206.071 12.4063 206.003 12.191C205.946 11.9643 205.839 11.8057 205.68 11.715C205.533 11.613 205.295 11.545 204.966 11.511C204.887 11.2617 204.847 10.9103 204.847 10.457C205.833 10.491 206.689 10.508 207.414 10.508L209.165 10.491C209.46 10.4797 209.811 10.474 210.219 10.474C213.052 10.474 214.469 11.6187 214.469 13.908C214.469 14.69 214.31 15.3983 213.993 16.033C213.676 16.6563 213.205 17.1493 212.582 17.512C211.97 17.8747 211.233 18.056 210.372 18.056C209.885 18.056 209.494 17.9993 209.199 17.886C209.176 17.7047 209.165 17.58 209.165 17.512C209.165 17.2627 209.205 17.053 209.284 16.883C209.465 16.9283 209.669 16.951 209.896 16.951ZM225.886 20.98C225.954 21.184 225.988 21.5353 225.988 22.034C225.648 22.0113 224.934 22 223.846 22C222.611 22 221.829 22.0113 221.5 22.034C221.5 21.6033 221.534 21.252 221.602 20.98C221.84 20.9233 222.016 20.8553 222.129 20.776C222.242 20.6967 222.299 20.589 222.299 20.453C222.299 20.3283 222.259 20.1867 222.18 20.028L221.993 19.637C220.486 19.637 219.29 19.688 218.406 19.79L218.389 19.841C218.31 19.9997 218.27 20.1583 218.27 20.317C218.27 20.691 218.502 20.912 218.967 20.98C219.035 21.252 219.069 21.6033 219.069 22.034C218.638 22.0113 218.094 22 217.437 22C216.746 22 216.304 22.0113 216.111 22.034C216.111 21.6487 216.151 21.2917 216.23 20.963C216.468 20.929 216.661 20.8327 216.808 20.674C216.955 20.5153 217.148 20.198 217.386 19.722L220.429 13.5C220.588 13.466 220.746 13.4433 220.905 13.432C221.064 13.4207 221.239 13.415 221.432 13.415L224.832 19.875C225.059 20.317 225.24 20.606 225.376 20.742C225.523 20.878 225.693 20.9573 225.886 20.98ZM221.585 18.77L220.854 17.223L220.701 16.883C220.486 16.4637 220.321 16.084 220.208 15.744C220.129 15.9933 219.981 16.356 219.766 16.832L219.596 17.189L218.882 18.77H221.585ZM237.62 19.535C237.62 19.943 237.649 20.249 237.705 20.453C237.762 20.6457 237.858 20.7817 237.994 20.861C238.13 20.929 238.34 20.9743 238.623 20.997C238.703 21.201 238.742 21.5467 238.742 22.034C238.085 22.0113 237.348 22 236.532 22C235.762 22 234.968 22.0113 234.152 22.034C234.152 21.864 234.164 21.677 234.186 21.473C234.209 21.269 234.237 21.1103 234.271 20.997C234.509 20.9743 234.685 20.929 234.798 20.861C234.923 20.7817 235.008 20.6457 235.053 20.453C235.099 20.249 235.121 19.943 235.121 19.535V18.073C233.58 18.073 232.447 18.1127 231.721 18.192V19.535C231.721 19.943 231.744 20.249 231.789 20.453C231.835 20.6457 231.914 20.7817 232.027 20.861C232.152 20.929 232.339 20.9743 232.588 20.997C232.656 21.2123 232.69 21.558 232.69 22.034C232.056 22.0113 231.364 22 230.616 22C229.778 22 228.939 22.0113 228.1 22.034C228.1 21.864 228.112 21.677 228.134 21.473C228.157 21.269 228.185 21.1103 228.219 20.997C228.503 20.9743 228.712 20.929 228.848 20.861C228.984 20.7817 229.075 20.6457 229.12 20.453C229.177 20.249 229.205 19.943 229.205 19.535V15.931C229.205 15.5343 229.177 15.2453 229.12 15.064C229.075 14.8827 228.984 14.758 228.848 14.69C228.724 14.6107 228.514 14.5483 228.219 14.503C228.14 14.2537 228.1 13.908 228.1 13.466C228.758 13.4887 229.562 13.5 230.514 13.5C231.194 13.5 231.92 13.4887 232.69 13.466C232.69 13.9307 232.651 14.2763 232.571 14.503C232.333 14.537 232.152 14.5993 232.027 14.69C231.914 14.7693 231.835 14.911 231.789 15.115C231.744 15.3077 231.721 15.6023 231.721 15.999V17.087H235.121V15.999C235.121 15.6023 235.099 15.3077 235.053 15.115C235.008 14.9223 234.923 14.7863 234.798 14.707C234.685 14.6163 234.504 14.5483 234.254 14.503C234.186 14.231 234.152 13.8853 234.152 13.466C234.787 13.4887 235.541 13.5 236.413 13.5C237.15 13.5 237.926 13.4887 238.742 13.466C238.742 13.8967 238.703 14.2423 238.623 14.503C238.329 14.537 238.113 14.5937 237.977 14.673C237.841 14.741 237.745 14.8713 237.688 15.064C237.643 15.2453 237.62 15.5343 237.62 15.931V19.535ZM248.773 13.466C248.83 14.5653 248.937 15.3983 249.096 15.965C248.677 16.135 248.235 16.22 247.77 16.22C247.691 15.7667 247.589 15.4267 247.464 15.2C247.339 14.9733 247.152 14.809 246.903 14.707C246.665 14.605 246.314 14.554 245.849 14.554H244.914V19.399C244.914 19.943 245.027 20.334 245.254 20.572C245.492 20.81 245.9 20.9517 246.478 20.997C246.557 21.2237 246.597 21.5693 246.597 22.034C245.872 22.0113 245.01 22 244.013 22C242.993 22 242.075 22.0113 241.259 22.034C241.259 21.5353 241.293 21.1897 241.361 20.997C241.644 20.9743 241.854 20.9233 241.99 20.844C242.126 20.7647 242.222 20.6287 242.279 20.436C242.336 20.232 242.364 19.9203 242.364 19.501V15.965C242.364 15.557 242.336 15.2623 242.279 15.081C242.234 14.8883 242.143 14.758 242.007 14.69C241.882 14.6107 241.673 14.5483 241.378 14.503C241.299 14.2537 241.259 13.908 241.259 13.466C242.392 13.4887 243.611 13.5 244.914 13.5C247.011 13.5 248.297 13.4887 248.773 13.466Z" fill="white"/>
<path d="M618.605 19.28C618.605 19.7447 618.633 20.096 618.69 20.334C618.758 20.5607 618.871 20.725 619.03 20.827C619.189 20.9177 619.427 20.9743 619.744 20.997C619.823 21.2237 619.863 21.575 619.863 22.051C619.274 22.017 618.469 22 617.449 22C616.35 22 615.449 22.017 614.746 22.051C614.746 21.6203 614.791 21.269 614.882 20.997C615.199 20.9743 615.432 20.9177 615.579 20.827C615.738 20.725 615.845 20.5607 615.902 20.334C615.97 20.096 616.004 19.7447 616.004 19.28V16.611C614.055 16.611 612.672 16.662 611.856 16.764V19.28C611.856 19.7447 611.89 20.096 611.958 20.334C612.026 20.5607 612.139 20.725 612.298 20.827C612.457 20.9177 612.695 20.9743 613.012 20.997C613.08 21.235 613.114 21.5863 613.114 22.051C612.536 22.017 611.731 22 610.7 22C609.612 22 608.717 22.017 608.014 22.051C608.014 21.643 608.054 21.2917 608.133 20.997C608.45 20.9743 608.688 20.9177 608.847 20.827C609.006 20.725 609.113 20.5607 609.17 20.334C609.238 20.096 609.272 19.7447 609.272 19.28V13.211C609.272 12.7463 609.238 12.4063 609.17 12.191C609.113 11.9643 609.006 11.8057 608.847 11.715C608.7 11.613 608.462 11.545 608.133 11.511C608.054 11.2617 608.014 10.9103 608.014 10.457C608.592 10.491 609.459 10.508 610.615 10.508C611.601 10.508 612.434 10.491 613.114 10.457C613.114 10.6497 613.108 10.8367 613.097 11.018C613.086 11.1993 613.052 11.3637 612.995 11.511C612.678 11.545 612.44 11.6073 612.281 11.698C612.122 11.7887 612.009 11.9473 611.941 12.174C611.884 12.4007 611.856 12.7463 611.856 13.211V15.54H616.004V13.211C616.004 12.7463 615.97 12.4063 615.902 12.191C615.845 11.9643 615.738 11.8057 615.579 11.715C615.432 11.613 615.194 11.545 614.865 11.511C614.786 11.2617 614.746 10.9103 614.746 10.457C615.347 10.491 616.214 10.508 617.347 10.508C618.344 10.508 619.183 10.491 619.863 10.457C619.863 10.9103 619.818 11.2617 619.727 11.511C619.41 11.545 619.172 11.6073 619.013 11.698C618.866 11.7887 618.758 11.9473 618.69 12.174C618.633 12.4007 618.605 12.7463 618.605 13.211V19.28ZM626.957 22.153C625.948 22.153 625.064 21.9717 624.305 21.609C623.545 21.2463 622.956 20.7363 622.537 20.079C622.129 19.4103 621.925 18.634 621.925 17.75C621.925 16.8547 622.134 16.0783 622.554 15.421C622.984 14.7637 623.585 14.2593 624.356 13.908C625.126 13.5567 626.027 13.381 627.059 13.381C628.067 13.381 628.951 13.5567 629.711 13.908C630.481 14.248 631.076 14.741 631.496 15.387C631.915 16.0217 632.125 16.7753 632.125 17.648C632.125 18.532 631.909 19.314 631.479 19.994C631.059 20.674 630.459 21.2067 629.677 21.592C628.906 21.966 627.999 22.153 626.957 22.153ZM627.161 21.116C627.897 21.116 628.47 20.8327 628.878 20.266C629.286 19.688 629.49 18.906 629.49 17.92C629.49 16.8433 629.24 15.9877 628.742 15.353C628.254 14.707 627.614 14.384 626.821 14.384C626.095 14.384 625.534 14.656 625.138 15.2C624.752 15.7327 624.56 16.4863 624.56 17.461C624.56 18.5377 624.792 19.416 625.257 20.096C625.733 20.776 626.367 21.116 627.161 21.116ZM647.92 20.997C647.988 21.303 648.022 21.6487 648.022 22.034C647.478 22.0113 646.616 22 645.438 22L644.112 22.017C643.874 22.0283 643.596 22.034 643.279 22.034C643.279 21.7167 643.318 21.371 643.398 20.997C643.772 20.9517 644.021 20.8837 644.146 20.793C644.27 20.691 644.333 20.4927 644.333 20.198C644.333 20.1073 644.31 19.8353 644.265 19.382L643.806 15.914L641.001 21.762C640.763 21.8413 640.508 21.881 640.236 21.881C640.088 21.881 639.975 21.8753 639.896 21.864L636.836 15.914L636.445 18.753C636.411 19.127 636.394 19.4443 636.394 19.705C636.394 20.1923 636.467 20.5267 636.615 20.708C636.762 20.878 637.011 20.9743 637.363 20.997C637.431 21.2463 637.465 21.592 637.465 22.034C636.989 22.0113 636.445 22 635.833 22L634.745 22.017C634.552 22.0283 634.325 22.034 634.065 22.034C634.065 21.626 634.104 21.2803 634.184 20.997C634.569 20.9743 634.852 20.81 635.034 20.504C635.215 20.198 635.351 19.637 635.442 18.821L635.816 16.016C635.838 15.744 635.85 15.5683 635.85 15.489C635.85 15.0923 635.776 14.8317 635.629 14.707C635.481 14.5823 635.226 14.52 634.864 14.52C634.784 14.2707 634.745 13.9193 634.745 13.466C635.289 13.4887 635.895 13.5 636.564 13.5C637.289 13.5 637.878 13.4887 638.332 13.466L641.188 18.838L643.806 13.466L645.659 13.5C646.259 13.5 646.843 13.4887 647.41 13.466C647.41 13.9533 647.376 14.3047 647.308 14.52C646.945 14.52 646.684 14.5993 646.526 14.758C646.367 14.9053 646.288 15.1603 646.288 15.523C646.288 15.6023 646.299 15.7667 646.322 16.016L646.798 19.246C646.866 19.7787 646.934 20.1583 647.002 20.385C647.07 20.6117 647.166 20.7647 647.291 20.844C647.427 20.912 647.636 20.963 647.92 20.997ZM657.479 19.28C657.751 19.3027 658 19.3593 658.227 19.45C658.454 19.5293 658.629 19.6257 658.754 19.739C658.527 20.3283 658.374 21.0877 658.295 22.017L654.589 22L650.203 22.034C650.203 21.5807 650.237 21.2293 650.305 20.98C650.588 20.9573 650.798 20.912 650.934 20.844C651.07 20.7647 651.166 20.6287 651.223 20.436C651.28 20.2433 651.308 19.943 651.308 19.535V15.948C651.308 15.5513 651.28 15.2623 651.223 15.081C651.166 14.8883 651.07 14.758 650.934 14.69C650.798 14.6107 650.583 14.554 650.288 14.52C650.231 14.2933 650.203 13.942 650.203 13.466C651.291 13.4887 652.498 13.5 653.824 13.5C656.034 13.5 657.383 13.4887 657.87 13.466C657.927 14.4633 658.034 15.2113 658.193 15.71C657.842 15.8687 657.434 15.948 656.969 15.948C656.89 15.4607 656.691 15.1037 656.374 14.877C656.068 14.639 655.541 14.52 654.793 14.52H653.824V17.359H654.3C654.742 17.359 655.042 17.2967 655.201 17.172C655.36 17.0473 655.445 16.832 655.456 16.526C655.728 16.4127 656.091 16.356 656.544 16.356C656.51 16.7413 656.493 17.2287 656.493 17.818C656.493 18.464 656.51 18.957 656.544 19.297C656.079 19.297 655.728 19.2517 655.49 19.161C655.456 18.855 655.354 18.651 655.184 18.549C655.025 18.4357 654.731 18.379 654.3 18.379H653.824V19.45C653.824 20.0507 653.903 20.4587 654.062 20.674C654.232 20.8893 654.555 20.997 655.031 20.997H655.252C655.909 20.997 656.391 20.8723 656.697 20.623C657.014 20.3623 657.275 19.9147 657.479 19.28ZM670.541 19.535C670.541 19.943 670.569 20.249 670.626 20.453C670.682 20.6457 670.779 20.7817 670.915 20.861C671.051 20.929 671.26 20.9743 671.544 20.997C671.623 21.201 671.663 21.5467 671.663 22.034C671.005 22.0113 670.269 22 669.453 22C668.682 22 667.889 22.0113 667.073 22.034C667.073 21.864 667.084 21.677 667.107 21.473C667.129 21.269 667.158 21.1103 667.192 20.997C667.43 20.9743 667.605 20.929 667.719 20.861C667.843 20.7817 667.928 20.6457 667.974 20.453C668.019 20.249 668.042 19.943 668.042 19.535V18.073C666.5 18.073 665.367 18.1127 664.642 18.192V19.535C664.642 19.943 664.664 20.249 664.71 20.453C664.755 20.6457 664.834 20.7817 664.948 20.861C665.072 20.929 665.259 20.9743 665.509 20.997C665.577 21.2123 665.611 21.558 665.611 22.034C664.976 22.0113 664.285 22 663.537 22C662.698 22 661.859 22.0113 661.021 22.034C661.021 21.864 661.032 21.677 661.055 21.473C661.077 21.269 661.106 21.1103 661.14 20.997C661.423 20.9743 661.633 20.929 661.769 20.861C661.905 20.7817 661.995 20.6457 662.041 20.453C662.097 20.249 662.126 19.943 662.126 19.535V15.931C662.126 15.5343 662.097 15.2453 662.041 15.064C661.995 14.8827 661.905 14.758 661.769 14.69C661.644 14.6107 661.434 14.5483 661.14 14.503C661.06 14.2537 661.021 13.908 661.021 13.466C661.678 13.4887 662.483 13.5 663.435 13.5C664.115 13.5 664.84 13.4887 665.611 13.466C665.611 13.9307 665.571 14.2763 665.492 14.503C665.254 14.537 665.072 14.5993 664.948 14.69C664.834 14.7693 664.755 14.911 664.71 15.115C664.664 15.3077 664.642 15.6023 664.642 15.999V17.087H668.042V15.999C668.042 15.6023 668.019 15.3077 667.974 15.115C667.928 14.9223 667.843 14.7863 667.719 14.707C667.605 14.6163 667.424 14.5483 667.175 14.503C667.107 14.231 667.073 13.8853 667.073 13.466C667.707 13.4887 668.461 13.5 669.334 13.5C670.07 13.5 670.847 13.4887 671.663 13.466C671.663 13.8967 671.623 14.2423 671.544 14.503C671.249 14.537 671.034 14.5937 670.898 14.673C670.762 14.741 670.665 14.8713 670.609 15.064C670.563 15.2453 670.541 15.5343 670.541 15.931V19.535Z" fill="white"/>
<path d="M1036.81 20.997C1036.9 21.303 1036.95 21.6543 1036.95 22.051C1036.4 22.017 1035.62 22 1034.6 22C1033.43 22 1032.59 22.017 1032.08 22.051C1032.08 21.5977 1032.12 21.2463 1032.2 20.997C1032.47 20.9403 1032.67 20.8723 1032.8 20.793C1032.92 20.7023 1032.98 20.5777 1032.98 20.419C1032.98 20.283 1032.91 20.0393 1032.76 19.688L1032.37 18.77C1030.87 18.77 1029.48 18.8097 1028.22 18.889L1028 19.45C1027.89 19.7673 1027.83 20.0167 1027.83 20.198C1027.83 20.6627 1028.11 20.929 1028.65 20.997C1028.73 21.269 1028.77 21.6203 1028.77 22.051C1028.38 22.017 1027.78 22 1026.95 22C1026.25 22 1025.74 22.017 1025.42 22.051C1025.42 21.6317 1025.47 21.2803 1025.56 20.997C1025.84 20.9517 1026.07 20.8157 1026.24 20.589C1026.42 20.351 1026.64 19.8977 1026.92 19.229L1030.49 10.491C1030.64 10.457 1030.8 10.4343 1030.96 10.423C1031.13 10.4117 1031.31 10.406 1031.51 10.406L1035.4 19.127C1035.64 19.6597 1035.82 20.0507 1035.96 20.3C1036.11 20.5493 1036.24 20.725 1036.37 20.827C1036.49 20.9177 1036.64 20.9743 1036.81 20.997ZM1031.95 17.818L1031.03 15.676C1030.74 15.0073 1030.47 14.282 1030.23 13.5C1030 14.248 1029.75 14.9677 1029.48 15.659L1028.63 17.818H1031.95ZM1046.97 14.044C1046.86 14.5767 1046.8 15.2227 1046.8 15.982C1046.69 16.05 1046.51 16.101 1046.26 16.135C1046.02 16.1577 1045.78 16.169 1045.55 16.169C1045.51 15.013 1044.91 14.435 1043.74 14.435C1042.87 14.435 1042.23 14.7183 1041.81 15.285C1041.4 15.8403 1041.19 16.543 1041.19 17.393C1041.19 18.4243 1041.47 19.263 1042.01 19.909C1042.57 20.5437 1043.37 20.861 1044.41 20.861C1045.25 20.861 1046.05 20.6967 1046.82 20.368C1047.01 20.538 1047.14 20.7873 1047.2 21.116C1046.64 21.422 1046.08 21.6657 1045.51 21.847C1044.96 22.0283 1044.32 22.119 1043.61 22.119C1042.62 22.119 1041.74 21.932 1040.97 21.558C1040.21 21.184 1039.63 20.6683 1039.21 20.011C1038.79 19.3423 1038.58 18.5773 1038.58 17.716C1038.58 16.798 1038.81 16.016 1039.27 15.37C1039.75 14.7127 1040.37 14.2197 1041.14 13.891C1041.93 13.551 1042.77 13.381 1043.68 13.381C1044.78 13.381 1045.88 13.602 1046.97 14.044ZM1057.71 14.044C1057.6 14.5767 1057.54 15.2227 1057.54 15.982C1057.43 16.05 1057.24 16.101 1057 16.135C1056.76 16.1577 1056.52 16.169 1056.28 16.169C1056.25 15.013 1055.65 14.435 1054.48 14.435C1053.61 14.435 1052.96 14.7183 1052.54 15.285C1052.13 15.8403 1051.93 16.543 1051.93 17.393C1051.93 18.4243 1052.2 19.263 1052.75 19.909C1053.3 20.5437 1054.1 20.861 1055.14 20.861C1055.98 20.861 1056.79 20.6967 1057.56 20.368C1057.75 20.538 1057.87 20.7873 1057.93 21.116C1057.38 21.422 1056.81 21.6657 1056.25 21.847C1055.69 22.0283 1055.06 22.119 1054.34 22.119C1053.36 22.119 1052.48 21.932 1051.71 21.558C1050.95 21.184 1050.36 20.6683 1049.94 20.011C1049.52 19.3423 1049.31 18.5773 1049.31 17.716C1049.31 16.798 1049.54 16.016 1050.01 15.37C1050.48 14.7127 1051.11 14.2197 1051.88 13.891C1052.66 13.551 1053.5 13.381 1054.41 13.381C1055.51 13.381 1056.61 13.602 1057.71 14.044ZM1067.44 19.28C1067.71 19.3027 1067.96 19.3593 1068.19 19.45C1068.42 19.5293 1068.59 19.6257 1068.72 19.739C1068.49 20.3283 1068.34 21.0877 1068.26 22.017L1064.55 22L1060.17 22.034C1060.17 21.5807 1060.2 21.2293 1060.27 20.98C1060.55 20.9573 1060.76 20.912 1060.9 20.844C1061.03 20.7647 1061.13 20.6287 1061.19 20.436C1061.24 20.2433 1061.27 19.943 1061.27 19.535V15.948C1061.27 15.5513 1061.24 15.2623 1061.19 15.081C1061.13 14.8883 1061.03 14.758 1060.9 14.69C1060.76 14.6107 1060.54 14.554 1060.25 14.52C1060.19 14.2933 1060.17 13.942 1060.17 13.466C1061.25 13.4887 1062.46 13.5 1063.79 13.5C1066 13.5 1067.34 13.4887 1067.83 13.466C1067.89 14.4633 1068 15.2113 1068.16 15.71C1067.8 15.8687 1067.4 15.948 1066.93 15.948C1066.85 15.4607 1066.65 15.1037 1066.34 14.877C1066.03 14.639 1065.5 14.52 1064.76 14.52H1063.79V17.359H1064.26C1064.7 17.359 1065 17.2967 1065.16 17.172C1065.32 17.0473 1065.41 16.832 1065.42 16.526C1065.69 16.4127 1066.05 16.356 1066.51 16.356C1066.47 16.7413 1066.46 17.2287 1066.46 17.818C1066.46 18.464 1066.47 18.957 1066.51 19.297C1066.04 19.297 1065.69 19.2517 1065.45 19.161C1065.42 18.855 1065.32 18.651 1065.15 18.549C1064.99 18.4357 1064.69 18.379 1064.26 18.379H1063.79V19.45C1063.79 20.0507 1063.87 20.4587 1064.02 20.674C1064.19 20.8893 1064.52 20.997 1064.99 20.997H1065.21C1065.87 20.997 1066.35 20.8723 1066.66 20.623C1066.98 20.3623 1067.24 19.9147 1067.44 19.28ZM1079.82 13.466C1079.81 13.8287 1079.83 14.2423 1079.87 14.707C1079.93 15.1603 1080 15.5683 1080.09 15.931C1079.75 16.0557 1079.32 16.1293 1078.79 16.152C1078.69 15.574 1078.53 15.166 1078.29 14.928C1078.05 14.6787 1077.69 14.554 1077.19 14.554H1076.68V19.518C1076.68 19.9373 1076.71 20.249 1076.78 20.453C1076.85 20.6457 1076.97 20.7817 1077.15 20.861C1077.35 20.929 1077.64 20.9743 1078.04 20.997C1078.13 21.1897 1078.17 21.5353 1078.17 22.034C1077.4 22.0113 1076.52 22 1075.54 22C1074.37 22 1073.37 22.0113 1072.53 22.034C1072.53 21.8867 1072.55 21.7167 1072.58 21.524C1072.61 21.32 1072.65 21.1443 1072.68 20.997C1073.09 20.9743 1073.4 20.9233 1073.6 20.844C1073.8 20.7647 1073.95 20.6287 1074.03 20.436C1074.12 20.232 1074.16 19.926 1074.16 19.518V14.554H1073.77C1073.23 14.554 1072.83 14.673 1072.58 14.911C1072.33 15.149 1072.13 15.5627 1071.99 16.152C1071.4 16.152 1070.97 16.084 1070.69 15.948C1070.78 15.608 1070.86 15.2 1070.91 14.724C1070.98 14.248 1071.02 13.8287 1071.02 13.466C1071.78 13.4887 1073.25 13.5 1075.45 13.5C1077.62 13.5 1079.07 13.4887 1079.82 13.466Z" fill="white"/>
<rect x="14" y="35" width="148" height="155"/>
<rect y="683" width="1278" height="37" fill="black"/>
<g clip-path="url(#clip0)">
<g filter="url(#filter0_d)">
<path fill-rule="evenodd" clip-rule="evenodd" d="M647.772 703.434L634.827 682.088H632.659V706.176H634.302V691.943H635.397V707.264H631.564V681H635.397L646.677 699.47V681H650.51V707.264H649.415V682.088H647.772V703.434Z" fill="white"/>
<path fill-rule="evenodd" clip-rule="evenodd" d="M623.811 681H627.643V682.088H624.906V706.176H626.548V691.943H627.643V707.264H623.811V681Z" fill="white"/>
<path fill-rule="evenodd" clip-rule="evenodd" d="M677.617 702.573C675.12 705.547 671.435 707.264 667.55 707.264C660.292 707.264 654.409 701.385 654.409 694.132C654.409 686.879 660.292 681 667.55 681C671.435 681 675.12 682.717 677.617 685.691L676.778 686.395C674.568 683.766 671.255 682.094 667.55 682.094C660.897 682.094 655.504 687.484 655.504 694.132C655.504 700.78 660.897 706.17 667.55 706.17C670.859 706.17 673.856 704.836 676.033 702.677L674.77 701.618C672.841 703.475 670.257 704.528 667.55 704.528C661.804 704.528 657.146 699.874 657.146 694.132C657.146 693.406 657.223 692.681 657.374 691.971L658.444 692.198C658.312 692.822 658.242 693.469 658.242 694.132C658.242 699.269 662.409 703.434 667.55 703.434C670.413 703.434 672.973 702.142 674.681 700.111L677.617 702.573Z" fill="white"/>
<path fill-rule="evenodd" clip-rule="evenodd" d="M681.546 681H685.378V682.088H682.641V706.176H684.283V691.943H685.378V707.264H681.546V681Z" fill="white"/>
<path fill-rule="evenodd" clip-rule="evenodd" d="M607.338 691.943L603.356 681.011L599.504 681.011L609.685 708.963L619.879 681H609.685V682.116H618.297L609.685 705.763L601.068 682.105H602.59L606.178 691.957L607.338 691.943Z" fill="white"/>
<path fill-rule="evenodd" clip-rule="evenodd" d="M689.327 681.006H693.173L697.521 687.96L696.229 687.959L692.561 682.094H691.32L698.672 693.852L706.028 682.088H698.67V681H708L699.217 695.033V707.253H698.122V695.033L689.327 681.006Z" fill="white"/>
<path fill-rule="evenodd" clip-rule="evenodd" d="M593.354 701.6L594.632 702.671C592.454 704.833 589.454 706.17 586.142 706.17C579.489 706.17 574.095 700.78 574.095 694.132C574.095 687.484 579.489 682.094 586.142 682.094C592.795 682.094 598.188 687.484 598.188 694.132C598.188 694.471 598.174 694.806 598.146 695.138L596.52 694.851C596.537 694.612 596.545 694.372 596.545 694.132C596.545 691.937 595.85 689.797 594.558 688.021L593.672 688.665C594.79 690.199 595.45 692.089 595.45 694.132C595.45 694.683 595.402 695.223 595.31 695.748L599.084 696.412C599.216 695.66 599.283 694.897 599.283 694.132C599.283 686.879 593.4 681 586.142 681C578.884 681 573 686.879 573 694.132C573 701.385 578.884 707.264 586.142 707.264C590.026 707.264 593.712 705.547 596.209 702.573L593.27 700.089C591.562 702.12 589.002 703.412 586.139 703.412C580.998 703.412 576.83 699.247 576.83 694.11C576.83 693.447 576.9 692.8 577.032 692.176L575.963 691.949C575.811 692.659 575.735 693.384 575.735 694.11C575.735 699.852 580.393 704.506 586.139 704.506C588.844 704.506 591.426 703.455 593.354 701.6ZM591.463 692.932L581.767 692.085L588.592 698.909L589.099 697.866L584.669 693.437L589.801 693.886L588.804 695.977L599.285 700.86C596.835 705.637 591.86 708.906 586.12 708.906V710C592.492 710 598.247 706.194 600.737 700.332L590.278 695.456L591.463 692.932Z" fill="white"/>
</g>
</g>
<defs>
<filter id="filter0_d" x="565" y="673" width="151" height="45" filterUnits="userSpaceOnUse" color-interpolation-filters="sRGB">
<feFlood flood-opacity="0" result="BackgroundImageFix"/>
<feColorMatrix in="SourceAlpha" type="matrix" values="0 0 0 0 0 0 0 0 0 0 0 0 0 0 0 0 0 0 127 0"/>
<feOffset/>
<feGaussianBlur stdDeviation="4"/>
<feColorMatrix type="matrix" values="0 0 0 0 0.783769 0 0 0 0 0.783769 0 0 0 0 0.783769 0 0 0 0.4 0"/>
<feBlend mode="normal" in2="BackgroundImageFix" result="effect1_dropShadow"/>
<feBlend mode="normal" in="SourceGraphic" in2="effect1_dropShadow" result="shape"/>
</filter>
<clipPath id="clip0">
<rect x="569" y="661" width="142" height="51" fill="white"/>
</clipPath>
</defs>
</svg>
